<svg xmlns="http://www.w3.org/2000/svg" viewBox="0 0 513 205.01" height="32" width="80"><path d="M449.19,133.1h.06a10.52,10.52,0,0,0,1.48.1,10.28,10.28,0,0,0,10.32-8.84c.45-3.11.48-7.49-1.92-10.67a9.39,9.39,0,0,0-6.49-3.58,9.18,9.18,0,0,0-7.52,2.26,14.23,14.23,0,0,0-4.63,9.36C440.05,126.49,442.57,132.05,449.19,133.1Z" transform="translate(0 0)"/><path d="M391.32,133.1h.06a10.52,10.52,0,0,0,1.48.1,10.28,10.28,0,0,0,10.32-8.84c.45-3.11.47-7.49-1.93-10.67a9.37,9.37,0,0,0-6.49-3.58,9.17,9.17,0,0,0-7.51,2.26,14.23,14.23,0,0,0-4.63,9.36C382.18,126.49,384.7,132.05,391.32,133.1Z" transform="translate(0 0)"/><path d="M510.16,145.48c-1.73-.9-4.2-.43-5.8,2.6-6.28,11.5-21,38.43-35.72,39-3.68.2-6.33-.78-8.3-3.07-4.54-5.3-5-17.38-1.43-34.93a12.64,12.64,0,0,0,.37-2.2c0-3.33-2.43-6-6-6.71-3.78-.7-8.49.85-10.18,5.2l-.13.46c0,.05-1.08,6.14-2,12.05-11.31,19-21.46,28.87-30.19,29.2-3.69.2-6.33-.79-8.3-3.08-4.55-5.29-5-17.37-1.43-34.93a12.37,12.37,0,0,0,.37-2.19c0-3.33-2.44-6-6.05-6.71-3.77-.7-8.49.85-10.18,5.2l-.13.46c0,.07-1.28,7.24-2.2,13.68C371.4,178.65,360,188,347.93,188c-6.94,0-13.47-3.85-18.46-10.88,10.11-12.62,32.41-50.82,38-90.28,3.22-21.11,1.44-36.58-5.15-44.74a17.12,17.12,0,0,0-12.75-6.54c-5-.32-10,1.74-14.71,6.14-17.18,15.93-28.49,60.11-28.74,83.54-.27,29.79-.67,74.8,38.36,76.79.7,0,1.38,0,2.06,0C363.51,202,376,191.1,383.93,181c2.7,9,9.31,21,25.39,21h.39c13.17,0,24.41-11,32-21.3C444.38,189.81,451,202,467.19,202h.39c22.17,0,39-31.46,42.12-37.77C514.41,154.76,513.64,147.26,510.16,145.48Zm-159-53.37v0c-10,39.72-14.79,52.27-27.87,71.83-2.79-11.27-3.92-28-3.2-37.91,3.93-40.89,20.21-74.42,28.62-74.42H349A2.75,2.75,0,0,1,351.21,53C356.24,59.94,353.18,84.78,351.21,92.11Z" transform="translate(0 0)"/><path d="M150.31,124.57c27.37-10.74,61.77-31.73,70.21-70.6l0-.09c1.78-8.36-.61-17-6.93-25C201.78,14,177.08,2.87,154.88,2.44,127,1.87,114.24,4,89.77,11c.83-5.88-1.1-7.78-4.62-8.9-.31-.09-.62-.2-.93-.32C81.57.53,78.56-.88,75.73.7,73.36,2,72,5,71.4,10.23c-.15.81-.3,1.87-.5,3.25-.13.91-.28,1.94-.46,3.08C51.48,22.68,38.22,28.67,18.38,40l-.86.48C9.47,45,.34,50.07,0,60.27c0,1.37,1,10.93,5.19,13a4.18,4.18,0,0,0,4.4-.43c2.67-1.79,2.22-4.3,2-5.65a2.87,2.87,0,0,1,.4-2.73c6.2-8.11,31.33-22,55.68-30.81-2.61,15-7.68,46.15-8,63.57,0,6.58-.25,15-.7,23.32a7.82,7.82,0,0,1-2.23-1.63,3.92,3.92,0,0,0-4.42-1.15c-2.07.85-2.83,3.26-2.84,5.24-.18,2.34.76,6.82,8.62,11.43-.4,8.66-.85,17.79-1.23,25.36v.24c-.47,9.55-.79,15.86-.79,16.81l0,.33c-1.1,11.61,2.3,19.3,9.54,21.65A18.44,18.44,0,0,0,71.17,200a5.11,5.11,0,0,0,3.48-1.14c2-1.78,1.49-4.56,1.09-6.59-.12-.6-.23-1.18-.27-1.58,0-.78-.09-2.81-.25-6.52-.38-9.29-1.17-28.3-1.25-45.15C88.7,139.75,119.77,136.57,150.31,124.57Zm-3.66-13.2c-26.19,10.92-55,14.12-72.6,12.51.32-9,.91-17.36,1.7-24.2,1.36-9.92,2.55-20.51,3.71-30.8,1.79-15.92,3.48-31,5.55-41,24.73-8.1,42.51-12,70-10.85,12.75.46,35.55,3,44.94,14.83,3.82,4.8,5.06,10.85,3.68,18-6.65,34-34.68,52.19-57,61.51Z" transform="translate(0 0)"/><path d="M285.9,123.64h0c-6.41-.81-12.47,1.26-18,6.14s-10,12.32-13.15,19.32A645.27,645.27,0,0,1,270.53,53c.39-1.62.58-2.42.67-3,1.32-5-2.52-11.58-7.93-13.6-1.7-.64-7.54-2.14-11.14,5.29l-.2.41,0,.45c-6.81,72.47-13.4,113.08-13.47,113.48s-.31,1.85-.61,4.06c-6.47,11.53-15.59,24.46-29,23-6.94-.8-8-10.44-8-16,.23-4.12.37-7.68.49-10.55.19-4.82.33-8.3.64-10,.23-.89.53-1.74.82-2.56.77-2.15,1.56-4.37.42-6.55-.85-1.63-2.57-2.75-5.45-3.54a7.81,7.81,0,0,0-6.14.75c-2.12,1.29-3.6,3.68-4.4,7.08-.61,2.47-1.17,4.95-1.67,7.16s-1,4.61-1.63,7c-2.4,9.64-11,25.73-15.54,25.19a3.55,3.55,0,0,1-2.67-1.77c-3.92-6-.75-23.89,2.34-34.43.31-1,.66-2,1-3.06,1.18-3.4,2.3-6.62.9-9.3a6.34,6.34,0,0,0-4.15-3.07c-3.06-1-5.64-.84-7.67.4a8.23,8.23,0,0,0-3.63,5.91c-.11.36-.25.83-.43,1.4a167.59,167.59,0,0,0-6.2,25.58c-1.39,9.54,1.07,20.28,6.13,26.75a16.86,16.86,0,0,0,11.74,6.77c11.3.92,18.62-9.73,22.24-16.95,2.78,7.13,9.24,17.56,23.15,17.56h.43c9.85-.19,18.7-7.29,25-14.22A39,39,0,0,0,238.86,195c3,7.48,7.36,7.84,9.67,7.39a9.76,9.76,0,0,0,4.05-2c3.17,2,9.06,4.39,14,4.6H267c9.34,0,29.46-11.9,33.63-39.4,2.59-16.43,1.22-28.77-4-35.7A15.52,15.52,0,0,0,285.9,123.64Zm-3.47,15.2a4.42,4.42,0,0,1,4.36,2.14c3.89,5.88,1.9,21.34-4.35,33.76-4.73,9.42-10.85,15-16.76,15.34a8.09,8.09,0,0,1-8.13-6c3.39-15.61,12.82-44.65,24.88-45.26Z" transform="translate(0 0)"/></svg>